<svg width="16.000000" height="16.000000" viewBox="0 0 16 16" fill="none" xmlns="http://www.w3.org/2000/svg" xmlns:xlink="http://www.w3.org/1999/xlink">
	<desc>
			Created with Pixso.
	</desc>
	<defs/>
	<path id="Ellipse 4" d="M8 16C12.4143 16 16 12.4142 16 8C16 3.58575 12.4143 0 8 0C3.58572 0 0 3.58575 0 8C0 12.4142 3.58572 16 8 16ZM11.6762 4.91541C12.3774 5.74994 12.8 6.82617 12.8 8C12.7996 9.09009 12.4315 10.1862 11.6761 11.0847C10.976 11.9202 9.98953 12.5233 8.83322 12.726C7.75992 12.916 6.61658 12.7438 5.60049 12.1559C4.65616 11.6115 3.89096 10.7448 3.49051 9.64124C3.11703 8.61719 3.08798 7.46136 3.49057 6.35858C3.8627 5.33411 4.5834 4.42999 5.60065 3.84399C6.54425 3.2984 7.67749 3.06909 8.8334 3.27405C9.90698 3.46265 10.9225 4.01538 11.6762 4.91541Z" fill="#C4C4C4" fill-opacity="0.160000" fill-rule="evenodd"/>
</svg>
