<svg width="16.000244" height="16.000977" viewBox="0 0 16.0002 16.001" fill="none" xmlns="http://www.w3.org/2000/svg" xmlns:xlink="http://www.w3.org/1999/xlink">
	<desc>
			Created with Pixso.
	</desc>
	<defs/>
	<path id="Ellipse 5" d="M2.85925 14.128C4.25018 15.2966 6.04382 16.001 8.00024 16.001C9.81708 16.0003 11.6439 15.3869 13.1415 14.1278C14.5339 12.961 15.539 11.3168 15.8769 9.38971C16.1935 7.60083 15.9067 5.69531 14.9268 4.00177C14.0194 2.42792 12.5748 1.15259 10.7356 0.485168C9.02893 -0.137329 7.10254 -0.18573 5.26459 0.485229C3.55707 1.10547 2.05023 2.30664 1.07361 4.00208C0.164246 5.57477 -0.217957 7.46344 0.123657 9.39001C0.437927 11.1793 1.35925 12.8718 2.85925 14.128ZM11.096 11.6906C10.2585 12.3943 9.17834 12.8184 8.00024 12.8184C6.90619 12.818 5.80615 12.4486 4.9043 11.6904C4.06586 10.9878 3.46057 9.99774 3.25708 8.83722C3.06641 7.76001 3.2392 6.61255 3.82928 5.59277C4.37561 4.64502 5.24554 3.87701 6.35309 3.4751C7.3808 3.10028 8.54083 3.07117 9.64758 3.47516C10.6758 3.84863 11.5832 4.57196 12.1713 5.5929C12.7189 6.53998 12.949 7.67731 12.7433 8.8374C12.5541 9.91486 11.9993 10.9341 11.096 11.6906Z" fill="#C4C4C4" fill-opacity="0.160000" fill-rule="evenodd"/>
	<path id="Ellipse 12" d="M8.00024 16.001C5.79309 16.001 3.79309 15.1046 2.34491 13.6563C0.782715 12.0972 0.00238037 10.0491 0.00238037 8.00098C0.000244141 5.79382 0.896667 3.79382 2.34491 2.34564C3.90405 0.783447 5.95215 0.00311279 8.00024 0.00311279C10.2074 0.000976562 12.2074 0.8974 13.6571 2.34412L11.3943 4.60687C10.4579 3.67047 9.22906 3.20227 8.00024 3.20227C6.67596 3.20099 5.47595 3.73883 4.60706 4.60779C3.66974 5.54327 3.20154 6.77216 3.20154 8.00098C3.20026 9.32526 3.7381 10.5253 4.60706 11.3942C5.54254 12.3315 6.77136 12.7997 8.00024 12.801L8.00024 16.001Z" fill="#FFFFFF" fill-opacity="1.000000" fill-rule="evenodd"/>
</svg>
